<svg width="23" height="21" viewBox="0 0 23 21" fill="none" xmlns="http://www.w3.org/2000/svg">
<path d="M9.86124 2.699L1.74416 16.2498C1.5768 16.5396 1.48825 16.8682 1.48731 17.2029C1.48638 17.5376 1.57308 17.8667 1.73881 18.1574C1.90454 18.4482 2.14352 18.6905 2.43196 18.8602C2.7204 19.0299 3.04826 19.1212 3.38291 19.1248H19.6171C19.9517 19.1212 20.2796 19.0299 20.568 18.8602C20.8565 18.6905 21.0954 18.4482 21.2612 18.1574C21.4269 17.8667 21.5136 17.5376 21.5127 17.2029C21.5117 16.8682 21.4232 16.5396 21.2558 16.2498L13.1387 2.699C12.9679 2.41735 12.7273 2.18449 12.4403 2.02288C12.1533 1.86127 11.8294 1.77637 11.5 1.77637C11.1706 1.77637 10.8467 1.86127 10.5597 2.02288C10.2726 2.18449 10.0321 2.41735 9.86124 2.699V2.699Z" stroke="black" stroke-width="2" stroke-linecap="round" stroke-linejoin="round"/>
<path d="M11.5 7.625V11.4583" stroke="black" stroke-width="2" stroke-linecap="round" stroke-linejoin="round"/>
<path d="M11.5 15.2915H11.5097" stroke="black" stroke-width="2" stroke-linecap="round" stroke-linejoin="round"/>
</svg>
