<svg width="13" height="14" viewBox="0 0 13 14" fill="none" xmlns="http://www.w3.org/2000/svg">
<path d="M9.84699 9.18504C9.39251 8.73056 8.93803 8.73056 8.48356 9.18504C8.18057 9.48803 7.7261 9.79102 7.42311 10.2455C7.27162 10.397 7.27162 10.397 7.12013 10.2455C6.96864 10.094 6.81714 10.094 6.66565 9.94251C5.60521 9.33654 4.84775 8.57907 4.24178 7.67011C3.93879 7.36712 3.63581 6.91264 3.33283 6.30667C3.33283 6.15518 3.33283 6.15518 3.33283 6.00368C3.63581 5.7007 3.93879 5.39771 4.24178 5.09472C4.69625 4.64024 4.69625 4.18576 4.24178 3.73128C4.09029 3.57979 3.7873 3.2768 3.63581 2.97382C3.33283 2.82232 3.02984 2.51934 2.87835 2.21635C2.42387 1.76187 1.81791 1.76187 1.51492 2.21635C1.06044 2.51934 0.75746 2.82232 0.454476 3.12531C0.151492 3.4283 0 3.88278 0 4.18576C0 4.79174 0.151492 5.5492 0.302984 6.15518C0.75746 7.36712 1.51492 8.57907 2.42387 9.63953C3.63581 11.003 4.99924 12.2149 6.66565 12.9724C7.42311 13.2754 8.18057 13.5784 8.93803 13.5784C9.544 13.5784 9.99848 13.4269 10.453 12.9724C10.7559 12.6694 11.0589 12.3664 11.3619 12.0634C11.8164 11.6089 11.8164 11.1545 11.3619 10.7C10.7559 10.2455 10.3015 9.79102 9.84699 9.18504Z" fill="white"/>
<path d="M9.24108 7.0637L10.3015 6.91221C10.15 6.00325 9.69556 5.24578 9.08959 4.48831C8.33213 3.73085 7.57467 3.42786 6.51422 3.27637L6.36273 4.33682C7.12019 4.33682 7.72616 4.63981 8.33213 5.24578C8.78661 5.70026 9.08959 6.45773 9.24108 7.0637Z" fill="white"/>
<path d="M10.7561 2.82281C9.69562 1.61086 8.1807 0.853398 6.66577 0.701904L6.51428 1.76236C7.87771 1.91385 9.08965 2.51983 10.1501 3.42879C11.059 4.33775 11.665 5.54969 11.968 6.91313L12.877 6.76164C12.574 5.24671 11.968 3.88327 10.7561 2.82281Z" fill="white"/>
</svg>
