<svg width="30" height="30" viewBox="0 0 30 30" fill="none" xmlns="http://www.w3.org/2000/svg">
<path d="M22.9412 19.7649C21.8824 18.7061 20.8236 18.7061 19.7647 19.7649C19.0588 20.4708 18 21.1767 17.2941 22.2355C16.9412 22.5885 16.9412 22.5885 16.5883 22.2355C16.2353 21.8826 15.8824 21.8826 15.5294 21.5297C13.0588 20.1179 11.2941 18.3532 9.88236 16.2355C9.17648 15.5296 8.4706 14.4708 7.76472 13.059C7.76472 12.706 7.76472 12.706 7.76472 12.3531C8.4706 11.6472 9.17648 10.9413 9.88236 10.2354C10.9412 9.17659 10.9412 8.11776 9.88236 7.05892C9.52942 6.70598 8.82354 6.00009 8.4706 5.2942C7.76472 4.94126 7.05883 4.23537 6.70589 3.52948C5.64707 2.47064 4.2353 2.47064 3.52942 3.52948C2.47059 4.23537 1.76471 4.94126 1.05882 5.64714C0.352942 6.35303 0 7.41187 0 8.11776C0 9.52954 0.352942 11.2943 0.705883 12.706C1.76471 15.5296 3.52942 18.3532 5.64707 20.8238C8.4706 24.0003 11.6471 26.8238 15.5294 28.5885C17.2941 29.2944 19.0588 30.0003 20.8236 30.0003C22.2353 30.0003 23.2941 29.6474 24.353 28.5885C25.0589 27.8827 25.7647 27.1768 26.4706 26.4709C27.5294 25.412 27.5294 24.3532 26.4706 23.2944C25.0589 22.2355 24 21.1767 22.9412 19.7649Z" fill="white"/>
<path d="M21.5296 14.8234L24.0002 14.4704C23.6473 12.3528 22.5884 10.588 21.1767 8.82331C19.412 7.05859 17.6473 6.3527 15.1767 5.99976L14.8237 8.47037C16.5884 8.47037 18.0002 9.17626 19.412 10.588C20.4708 11.6469 21.1767 13.4116 21.5296 14.8234Z" fill="white"/>
<path d="M25.0589 4.94122C22.5883 2.11767 19.0589 0.352945 15.5295 0L15.1765 2.47061C18.353 2.82356 21.1765 4.23533 23.6471 6.353C25.7648 8.47067 27.1765 11.2942 27.8824 14.4707L30.0001 14.1178C29.2942 10.5883 27.8824 7.41184 25.0589 4.94122Z" fill="white"/>
</svg>
