<svg width="21" height="21" viewBox="0 0 21 21" fill="none" xmlns="http://www.w3.org/2000/svg">
<path fill-rule="evenodd" clip-rule="evenodd" d="M12 8H10V5H7V3H10V0H12V3H15V5H12V8ZM4.01001 19C4.01001 17.9 4.90001 17 6 17C7.1 17 8 17.9 8 19C8 20.1 7.1 21 6 21C4.90001 21 4.01001 20.1 4.01001 19ZM16 17C14.9 17 14.01 17.9 14.01 19C14.01 20.1 14.9 21 16 21C17.1 21 18 20.1 18 19C18 17.9 17.1 17 16 17ZM14.5499 12H7.09997L5.99997 14H17.9999V16H5.99997C4.47998 16 3.51998 14.37 4.24998 13.03L5.59998 10.59L1.99999 2.99995H0V0.999954H3.26999L7.52997 9.99995H14.5499L18.4199 2.99995L20.1599 3.95995L16.2999 10.97C15.9599 11.59 15.2999 12 14.5499 12Z" fill="black"/>
</svg>
