<svg width="44" height="17" viewBox="0 0 44 17" fill="none" xmlns="http://www.w3.org/2000/svg">
<path d="M31.8827 9.22986C31.539 9.22986 31.2554 9.51345 31.2554 9.8572V11.1119C31.2554 11.3353 31.3757 11.5416 31.5733 11.6533C31.771 11.765 32.003 11.765 32.2007 11.6533C32.3983 11.5416 32.5101 11.3353 32.5101 11.1119V9.8572C32.5101 9.51345 32.2265 9.22986 31.8827 9.22986Z" fill="black"/>
<path d="M41.2241 12.9423C43.2608 12.9423 43.3038 13.0024 43.553 12.7618C43.6733 12.6415 43.7335 12.4868 43.7335 12.3149V8.55087C43.7335 8.20712 43.4499 7.92352 43.1062 7.92352H41.2241V12.9423Z" fill="black"/>
<path d="M31.2554 7.34757C31.264 7.69132 31.539 7.96632 31.8827 7.96632C32.2265 7.96632 32.5015 7.69132 32.5101 7.34757V6.72023C32.5101 6.49679 32.3897 6.29054 32.2007 6.17882C32.003 6.0671 31.771 6.0671 31.5733 6.17882C31.3757 6.29054 31.2554 6.49679 31.2554 6.72023V7.34757Z" fill="black"/>
<path d="M14.3171 10.4846C14.3171 11.2495 14.7726 11.9284 15.4773 12.2206C16.182 12.5128 16.9898 12.3495 17.5312 11.8167C18.0726 11.2839 18.2273 10.4674 17.9351 9.76276C17.6429 9.05807 16.9554 8.6026 16.1992 8.6026C15.1593 8.6026 14.3257 9.44479 14.3171 10.4846Z" fill="black"/>
<path d="M33.7649 14.2486C33.7649 14.5924 34.0485 14.876 34.3922 14.876H39.2219L40.6657 13.9135V7.05564L39.2219 6.09314H34.3922C34.0485 6.09314 33.7649 6.37673 33.7649 6.72048V14.2486Z" fill="black"/>
<path d="M31.8827 14.8757C32.2265 14.8757 32.5101 14.5921 32.5101 14.2484V13.621C32.5015 13.2773 32.2265 13.0023 31.8827 13.0023C31.539 13.0023 31.264 13.2773 31.2554 13.621V14.2484C31.2554 14.4116 31.3241 14.5749 31.4358 14.6952C31.5562 14.8069 31.7194 14.8757 31.8827 14.8757Z" fill="black"/>
<path d="M18.0812 7.34774C18.0726 6.59149 17.6171 5.91258 16.9124 5.62039C16.2163 5.3282 15.4085 5.48289 14.8671 6.0157C14.2312 6.65164 14.3171 7.32195 14.3171 7.99227C15.4257 7.13289 16.9726 7.13289 18.0812 7.99227V7.34774Z" fill="black"/>
<path d="M18.0811 12.9766C16.9725 13.8359 15.4256 13.8359 14.317 12.9766V13.6211C14.3085 14.3 14.6694 14.9273 15.2538 15.2625C15.8381 15.6063 16.56 15.5977 17.1444 15.2625C17.7288 14.9188 18.0897 14.3 18.0811 13.6211V12.9766Z" fill="black"/>
<path d="M26.8641 13.6299H25.6094V7.35651H26.8641V13.6299Z" fill="black"/>
<path d="M29.3733 14.876H28.746C28.4022 14.876 28.1187 14.5924 28.1187 14.2486V6.72048C28.1187 6.37673 28.4022 6.09314 28.746 6.09314H29.3733C29.7171 6.09314 30.0007 6.37673 30.0007 6.72048V14.2486C30.0007 14.601 29.7257 14.876 29.3733 14.876Z" fill="black"/>
<path d="M19.3359 14.2485C19.3359 14.5837 19.4648 14.9016 19.7055 15.1337C19.9375 15.3657 20.2641 15.5032 20.5906 15.5032H23.1C23.4352 15.5032 23.7531 15.3743 23.9852 15.1337C24.2172 14.9016 24.3547 14.5751 24.3547 14.2485V1.0743C24.3547 0.911023 24.2859 0.747742 24.1742 0.62743C24.0539 0.507117 23.8992 0.44696 23.7273 0.44696H19.9633C19.6195 0.44696 19.3359 0.730554 19.3359 1.0743V14.2485ZM22.9195 11.9196C23.1 12.1001 23.1516 12.3665 23.057 12.6071C22.9625 12.8477 22.7305 12.9938 22.4727 12.9938H21.218C20.8742 12.9938 20.5906 12.7102 20.5906 12.3665C20.5906 12.0227 20.8742 11.7391 21.218 11.7391C22.5586 11.7391 22.6789 11.6876 22.9195 11.9196ZM22.4727 9.22976C22.8164 9.23836 23.0914 9.51336 23.0914 9.85711C23.0914 10.2009 22.8164 10.4759 22.4727 10.4845H21.218C20.8742 10.4759 20.5992 10.2009 20.5992 9.85711C20.5992 9.51336 20.8742 9.23836 21.218 9.22976H22.4727ZM21.218 6.72039C22.5844 6.72039 22.6875 6.66883 22.9195 6.90086C23.1 7.08133 23.1516 7.34774 23.057 7.58836C22.9625 7.82039 22.7305 7.97508 22.4812 7.97508H21.2266C20.8828 7.97508 20.5992 7.69148 20.5992 7.34774C20.5906 7.00399 20.8742 6.72039 21.218 6.72039ZM21.8453 2.95633C22.1031 2.95633 22.3266 3.11102 22.4211 3.34305C22.5156 3.57508 22.4641 3.85008 22.2836 4.03055C22.1031 4.21102 21.8367 4.26258 21.5961 4.16805C21.3641 4.07352 21.2094 3.84149 21.2094 3.59227C21.218 3.23993 21.5016 2.95633 21.8453 2.95633Z" fill="black"/>
<path d="M0.266357 5.46554V15.503C0.266357 15.6663 0.335107 15.8296 0.446826 15.9499C0.558545 16.0702 0.721826 16.1304 0.893701 16.1304C10.4757 16.1304 9.6937 16.1476 9.85698 16.0874L12.8476 13.5179C12.9851 13.3976 13.0625 13.2257 13.0625 13.0452V7.92335C13.0625 7.74288 12.9851 7.56241 12.8476 7.45069C9.53042 4.59757 9.89995 4.89835 9.74526 4.8382H0.893701C0.73042 4.8382 0.567139 4.90694 0.446826 5.01866C0.326514 5.13038 0.266357 5.30226 0.266357 5.46554ZM9.92573 6.72022C10.2695 6.72022 10.5531 7.00382 10.5531 7.34757V13.621C10.5531 13.8444 10.4414 14.0593 10.2437 14.171C10.046 14.2827 9.80542 14.2827 9.60776 14.171C9.41011 14.0593 9.28979 13.8444 9.29839 13.621V7.34757C9.29839 7.18429 9.36714 7.021 9.48745 6.90069C9.59917 6.78897 9.76245 6.72022 9.92573 6.72022Z" fill="black"/>
</svg>
