<svg width="36" height="36" viewBox="0 0 36 36" fill="none" xmlns="http://www.w3.org/2000/svg">
<g clip-path="url(#clip0)">
<path d="M9.76693 26.8592C7.2 27.1375 1.91571 27.0643 0 25.5613V34.7142C0.219214 35.1469 2.77714 35.9999 7.07143 35.9999C9.06771 36.0479 11.0603 35.8034 12.9857 35.2742C10.4744 33.2544 9.2446 30.0393 9.76693 26.8592Z" fill="black"/>
<path d="M13.491 1.2857C13.2338 0.821556 10.8803 -1.52588e-05 7.07139 -1.52588e-05C3.20332 -1.52588e-05 0.840822 0.847271 0.642822 1.30691V1.31848C0.840822 1.72413 3.20332 2.57141 7.07139 2.57141C10.8803 2.57141 13.2313 1.74984 13.491 1.2857Z" fill="black"/>
<path d="M18.6429 28.9286C18.9979 28.9286 19.2857 28.6408 19.2857 28.2857C19.2857 27.9307 18.9979 27.6429 18.6429 27.6429C18.2878 27.6429 18 27.9307 18 28.2857C18 28.6408 18.2878 28.9286 18.6429 28.9286Z" fill="black"/>
<path d="M0.642822 24.4113C0.847894 24.8709 3.20847 25.7144 7.07139 25.7144C8.07758 25.7153 9.08277 25.6508 10.0806 25.5215C10.8437 23.1622 12.1551 22.0462 13.5 20.7001V2.8145C10.6418 4.19793 3.50482 4.19921 0.642822 2.8145V24.4113ZM1.92854 5.78578C1.92854 5.43074 2.21635 5.14293 2.57139 5.14293C2.92643 5.14293 3.21425 5.43074 3.21425 5.78578V6.42864C3.21425 6.78368 2.92643 7.0715 2.57139 7.0715C2.21635 7.0715 1.92854 6.78368 1.92854 6.42864V5.78578ZM1.92854 9.00007C1.92854 8.64503 2.21635 8.35721 2.57139 8.35721C2.92643 8.35721 3.21425 8.64503 3.21425 9.00007V23.1429C3.21425 23.498 2.92643 23.7858 2.57139 23.7858C2.21635 23.7858 1.92854 23.498 1.92854 23.1429V9.00007Z" fill="black"/>
<path d="M34.2322 12.553C32.0518 10.4508 28.6206 10.3817 26.3572 12.3942L21.9556 16.7502C26.3113 17.1045 29.7802 20.5417 30.1745 24.8939L34.5176 20.5919C36.6035 18.2729 36.4773 14.7182 34.2322 12.553Z" fill="black"/>
<path d="M18.6427 20.5714C14.3823 20.5714 10.9285 24.0251 10.9285 28.2856C10.9285 32.5461 14.3823 35.9999 18.6427 35.9999C22.9032 35.9999 26.357 32.5461 26.357 28.2856C26.3524 24.0271 22.9013 20.576 18.6427 20.5714ZM14.7856 28.2856C14.7856 28.6407 14.4978 28.9285 14.1427 28.9285C13.7877 28.9285 13.4999 28.6407 13.4999 28.2856C13.5031 25.4466 15.8037 23.146 18.6427 23.1428C18.9978 23.1428 19.2856 23.4306 19.2856 23.7856C19.2856 24.1407 18.9978 24.4285 18.6427 24.4285C16.5134 24.4306 14.7877 26.1563 14.7856 28.2856ZM16.7142 28.2856C16.7142 27.2205 17.5776 26.3571 18.6427 26.3571C19.7079 26.3571 20.5713 27.2205 20.5713 28.2856C20.5713 29.3507 19.7079 30.2142 18.6427 30.2142C17.5776 30.2142 16.7142 29.3507 16.7142 28.2856ZM18.6427 33.4285C18.2877 33.4285 17.9999 33.1407 17.9999 32.7856C17.9999 32.4306 18.2877 32.1428 18.6427 32.1428C20.7721 32.1406 22.4978 30.415 22.4999 28.2856C22.4999 27.9306 22.7877 27.6428 23.1427 27.6428C23.4978 27.6428 23.7856 27.9306 23.7856 28.2856C23.7824 31.1246 21.4817 33.4253 18.6427 33.4285Z" fill="black"/>
<path d="M21.2142 17.9999C19.5622 17.9979 17.9539 18.5313 16.6306 19.5203C19.6493 18.8267 22.8125 19.7355 25.0027 21.9257C27.1929 24.1159 28.1017 27.2791 27.4081 30.2978C29.1371 27.9572 29.4019 24.843 28.093 22.2441C26.784 19.6452 24.1241 18.0041 21.2142 17.9999Z" fill="black"/>
</g>
<defs>
<clipPath id="clip0">
<rect width="36" height="36" fill="white"/>
</clipPath>
</defs>
</svg>
