<svg width="35" height="35" viewBox="0 0 35 35" fill="none" xmlns="http://www.w3.org/2000/svg">
<path d="M28.7 15.75H6.3C5.334 15.75 5.25 16.5322 5.25 17.5C5.25 18.4677 5.334 19.25 6.3 19.25H28.7C29.666 19.25 29.75 18.4677 29.75 17.5C29.75 16.5322 29.666 15.75 28.7 15.75ZM28.7 22.75H6.3C5.334 22.75 5.25 23.5323 5.25 24.5C5.25 25.4678 5.334 26.25 6.3 26.25H28.7C29.666 26.25 29.75 25.4678 29.75 24.5C29.75 23.5323 29.666 22.75 28.7 22.75ZM6.3 12.25H28.7C29.666 12.25 29.75 11.4678 29.75 10.5C29.75 9.53225 29.666 8.75 28.7 8.75H6.3C5.334 8.75 5.25 9.53225 5.25 10.5C5.25 11.4678 5.334 12.25 6.3 12.25Z" fill="black"/>
</svg>
