<svg width="36" height="36" viewBox="0 0 36 36" fill="none" xmlns="http://www.w3.org/2000/svg">
<path d="M24 30.0001H12.0001C11.1129 30.0021 10.2569 29.6726 9.6001 29.0762V31.8001C9.60108 32.1311 9.86911 32.3991 10.2001 32.4001H25.8001C26.1311 32.3991 26.3991 32.1311 26.4001 31.8001V29.0762C25.7432 29.6726 24.8873 30.0021 24 30.0001Z" fill="#FF5101"/>
<path d="M17.9999 26.4C18.3312 26.4 18.5999 26.1314 18.5999 25.8001C18.5999 25.4687 18.3312 25.2001 17.9999 25.2001C17.6685 25.2001 17.3999 25.4687 17.3999 25.8001C17.3999 26.1314 17.6685 26.4 17.9999 26.4Z" fill="#FF5101"/>
<path d="M13.2 18H12V21.6H13.2V18Z" fill="#FF5101"/>
<path d="M24.0001 18H22.8V21.6H24.0001V18Z" fill="#FF5101"/>
<path d="M25.8 22.7999H10.2001C9.86911 22.8009 9.60108 23.0689 9.6001 23.3999V26.3999C9.59975 27.725 10.6737 28.7996 11.9988 28.7999C11.9992 28.7999 11.9997 28.7999 12.0001 28.7999H24.0002C25.3253 28.8003 26.3998 27.7263 26.4001 26.4012C26.4001 26.4008 26.4001 26.4003 26.4001 26.3999V23.3999C26.3991 23.0689 26.131 22.8009 25.8 22.7999ZM18.0001 27.5999C17.006 27.5999 16.2001 26.794 16.2001 25.7999C16.2001 24.8057 17.0059 23.9999 18.0001 23.9999C18.9942 23.9999 19.8001 24.8057 19.8001 25.7999C19.7972 26.7928 18.9929 27.597 18.0001 27.5999Z" fill="#FF5101"/>
<path d="M32.4 10.8H31.2V10.2C31.201 9.10568 30.46 8.14985 29.4 7.87802V5.4C29.4003 4.07489 28.3264 3.00038 27.0013 3.00002C27.0009 3.00002 27.0004 3.00002 27 3.00002H22.8C22.7994 1.34339 21.4566 0.000632813 19.8 0H16.2C14.5434 0.000632813 13.2006 1.34339 13.2 3.00002H9C7.67489 2.99967 6.60037 4.07355 6.60002 5.39866C6.60002 5.39909 6.60002 5.39958 6.60002 5.4V7.87802C5.53999 8.14985 4.79904 9.10568 4.80002 10.2V10.8H3.6C1.61241 10.8015 0.00154687 12.4124 0 14.4V28.2C0.00154687 30.1876 1.61241 31.7985 3.6 31.8H4.80002V33.6C4.79967 34.9251 5.87363 35.9996 7.19873 36C7.19916 36 7.19958 36 7.20007 36H28.8001C30.1252 36.0004 31.1997 34.9264 31.2 33.6013C31.2 33.6009 31.2 33.6004 31.2 33.6V31.8H32.4C34.3876 31.7984 35.9985 30.1875 36 28.2V14.4C35.9985 12.4124 34.3876 10.8015 32.4 10.8ZM4.80002 28.2H3.6V14.4H4.80002V28.2ZM4.80002 13.2H3.6C2.93808 13.2019 2.40195 13.738 2.39998 14.4V28.2C2.40195 28.8619 2.93801 29.3981 3.6 29.4H4.80002V30.6H3.6C2.27489 30.6004 1.20037 29.5264 1.20002 28.2013C1.20002 28.2009 1.20002 28.2004 1.20002 28.2V14.4C1.19967 13.0749 2.27355 12.0004 3.59866 12C3.59909 12 3.59958 12 3.6 12H4.80002V13.2ZM25.2 4.19998V13.626C25.0345 13.6759 24.8662 13.7159 24.696 13.746C24.6324 13.7573 24.5684 13.7654 24.504 13.77C24.456 13.776 24.402 13.782 24.348 13.788C24.234 13.794 24.12 13.8 24 13.8V4.20005H25.2V4.19998ZM22.8 4.19998V13.8H21.6V4.19998H22.8ZM16.2 1.20002H19.8C20.7929 1.20291 21.5971 2.00714 21.6 3.00002H14.4C14.4029 2.00707 15.2071 1.20291 16.2 1.20002ZM13.2 4.19998H14.4V13.8H13.2V4.19998ZM10.8 4.19998H12V13.8C11.7953 13.8011 11.5907 13.7871 11.388 13.758C11.286 13.74 11.184 13.722 11.088 13.704C10.992 13.68 10.896 13.656 10.8 13.626V4.19998ZM27.6 31.8C27.5971 32.7929 26.7929 33.5971 25.8 33.6H10.2C9.20714 33.5971 8.40291 32.7929 8.40002 31.8V23.4C8.40291 22.4071 9.20714 21.6029 10.2 21.6H10.8V14.868C10.8275 14.875 10.8557 14.879 10.884 14.88C10.9942 14.9093 11.1066 14.9293 11.22 14.94H11.238C11.4899 14.9813 11.7448 15.0014 12 15V16.8H13.2V15H14.4V21.6H21.6V15H22.8V16.8H24V15C24.1484 15.0011 24.2967 14.9931 24.4441 14.976H24.4621C24.5244 14.9733 24.5865 14.9673 24.648 14.958C24.708 14.952 24.7681 14.94 24.828 14.934C24.9531 14.9183 25.0772 14.8963 25.2001 14.868V21.6H25.8C26.7929 21.6029 27.5972 22.4071 27.6 23.4V31.8H27.6ZM31.2 14.4H32.4V28.2H31.2V14.4ZM34.8 14.4V28.2C34.8003 29.5251 33.7264 30.5996 32.4013 30.6C32.4008 30.6 32.4004 30.6 32.3999 30.6H31.1999V29.4H32.4C33.0619 29.398 33.5981 28.8619 33.6 28.2V14.4C33.5981 13.7381 33.062 13.2019 32.4 13.2H31.2V12H32.4C33.7251 11.9996 34.7996 13.0735 34.8 14.3986C34.8 14.3991 34.8 14.3996 34.8 14.4Z" fill="#FF5101"/>
</svg>
