<svg width="40" height="40" viewBox="0 0 40 40" fill="none" xmlns="http://www.w3.org/2000/svg">
<g clip-path="url(#clip0)">
<path d="M18.9882 18.1948L34.6178 2.49114C34.7324 6.36861 33.2452 10.1222 30.506 12.8689L22.1297 21.3334L18.9882 18.1948ZM17.4186 18.72L23.7038 25.0052L21.9312 26.7548L14.4571 21.6437L17.4186 18.72ZM11.0312 25.0215L14.7023 32.0297L8.00005 28.0097L11.0312 25.0215ZM8.72449 39.783C8.43179 40.063 7.97052 40.063 7.67782 39.783L2.4393 34.5452C2.15157 34.2574 2.14991 33.7914 2.4356 33.5015L4.02079 31.9371L10.3067 38.2222L8.72449 39.783ZM11.3608 37.1852L5.0756 30.8971L6.91264 29.0845L14.783 33.806L11.3608 37.1852ZM16.4445 32.166L12.1334 23.9341L13.383 22.7008L20.8563 27.8119L16.4445 32.166ZM24.2223 23.4319L23.1749 22.3837L31.5593 13.9104C34.6418 10.8234 36.2895 6.5859 36.1023 2.22743L36.0489 1.05262L37.0015 0.0963215C37.1052 -0.0079361 37.2608 -0.0409521 37.3979 0.0121949C37.5351 0.065342 37.6278 0.194583 37.6341 0.341507L37.7645 3.34595C37.9316 7.28781 36.4407 11.1196 33.6534 13.9119L24.2223 23.4319Z" fill="#FF5101"/>
</g>
<defs>
<clipPath id="clip0">
<rect width="40" height="40" fill="white"/>
</clipPath>
</defs>
</svg>
