<svg width="16" height="16" viewBox="0 0 16 16" fill="none" xmlns="http://www.w3.org/2000/svg">
<path d="M9.76242 8L15.1374 2.6375C15.3728 2.40212 15.505 2.08288 15.505 1.75C15.505 1.41713 15.3728 1.09788 15.1374 0.862503C14.902 0.627123 14.5828 0.494888 14.2499 0.494888C13.917 0.494888 13.5978 0.627123 13.3624 0.862503L7.99992 6.2375L2.63742 0.862503C2.40204 0.627123 2.0828 0.494888 1.74992 0.494888C1.41705 0.494888 1.0978 0.627123 0.862424 0.862503C0.627044 1.09788 0.494809 1.41713 0.494809 1.75C0.494809 2.08288 0.627044 2.40212 0.862424 2.6375L6.23742 8L0.862424 13.3625C0.745263 13.4787 0.652271 13.617 0.58881 13.7693C0.525349 13.9216 0.492676 14.085 0.492676 14.25C0.492676 14.415 0.525349 14.5784 0.58881 14.7307C0.652271 14.883 0.745263 15.0213 0.862424 15.1375C0.978627 15.2547 1.11688 15.3477 1.2692 15.4111C1.42153 15.4746 1.58491 15.5073 1.74992 15.5073C1.91494 15.5073 2.07832 15.4746 2.23064 15.4111C2.38297 15.3477 2.52122 15.2547 2.63742 15.1375L7.99992 9.7625L13.3624 15.1375C13.4786 15.2547 13.6169 15.3477 13.7692 15.4111C13.9215 15.4746 14.0849 15.5073 14.2499 15.5073C14.4149 15.5073 14.5783 15.4746 14.7306 15.4111C14.883 15.3477 15.0212 15.2547 15.1374 15.1375C15.2546 15.0213 15.3476 14.883 15.411 14.7307C15.4745 14.5784 15.5072 14.415 15.5072 14.25C15.5072 14.085 15.4745 13.9216 15.411 13.7693C15.3476 13.617 15.2546 13.4787 15.1374 13.3625L9.76242 8Z" fill="black"/>
</svg>
