<svg width="36" height="36" viewBox="0 0 36 36" fill="none" xmlns="http://www.w3.org/2000/svg">
<g clip-path="url(#clip0)">
<path d="M8.54757 13.4321L1.86946 14.3218C2.1022 15.8776 2.11759 17.4577 1.91572 19.0173C1.83149 19.4364 1.73572 19.8408 1.63672 20.2387C3.67912 20.1596 12.9679 20.0176 17.7431 23.599C21.0417 26.0728 24.0233 24.4945 25.516 23.3251C24.3679 23.167 23.2949 22.6624 22.4406 21.8793C20.6592 20.2381 17.468 16.946 16.1135 13.3343C14.5334 9.12359 14.6253 3.73052 14.7378 1.60712C13.326 1.84499 10.9416 2.72827 10.9301 6.01846L11.321 9.92713C11.5003 11.6552 10.2698 13.2103 8.54757 13.4321ZM16.7661 18.0832C16.7988 18.0055 16.8444 17.9335 16.9011 17.8711C17.1588 17.6332 17.5562 17.6332 17.8139 17.8711C17.8705 17.9335 17.9162 18.0055 17.9489 18.0832C18.0177 18.2388 18.0177 18.4162 17.9489 18.5719C17.9162 18.6496 17.8705 18.7216 17.8139 18.784C17.7824 18.8129 17.7477 18.8386 17.7111 18.8611C17.6783 18.8869 17.6417 18.9061 17.6018 18.919C17.5652 18.9376 17.5259 18.9505 17.4861 18.9576C17.4437 18.9647 17.4006 18.9692 17.3575 18.9705C17.1865 18.9724 17.0219 18.9049 16.9011 18.7841C16.7803 18.6633 16.7127 18.4987 16.7147 18.3277C16.7152 18.2433 16.7326 18.1604 16.7661 18.0832ZM14.9724 15.2996C15.2302 15.0617 15.6275 15.0617 15.8853 15.2996C15.9432 15.3613 15.9894 15.4327 16.0203 15.5117C16.0531 15.5889 16.0711 15.6725 16.0717 15.756C16.0717 16.1109 15.7837 16.3989 15.4288 16.3989C15.074 16.3989 14.7859 16.1109 14.7859 15.756C14.7866 15.6718 14.8039 15.5889 14.8373 15.5117C14.8683 15.4333 14.9139 15.3613 14.9724 15.2996ZM14.5995 12.7281C14.6253 12.7603 14.6509 12.7924 14.6767 12.8245C14.7011 12.8605 14.7204 12.8992 14.7345 12.9403C14.7532 12.9769 14.766 13.0162 14.7731 13.056C14.7809 13.0984 14.7848 13.1415 14.786 13.1846C14.7834 13.355 14.7166 13.5176 14.5996 13.641C14.5379 13.6989 14.4659 13.7445 14.3875 13.776C14.311 13.812 14.2274 13.8294 14.1432 13.8274C13.9728 13.8248 13.8102 13.7587 13.6868 13.641C13.6302 13.5787 13.5839 13.5067 13.5518 13.4289C13.519 13.3518 13.5017 13.2688 13.5004 13.1846C13.503 13.0143 13.5692 12.8516 13.6868 12.7282C13.8713 12.5456 14.1477 12.4923 14.3875 12.5932C14.4652 12.6259 14.5372 12.6715 14.5995 12.7281ZM12.9089 10.3688C12.968 10.2074 13.0946 10.0808 13.256 10.0216C13.373 9.97023 13.5035 9.95737 13.6289 9.98303C13.6694 9.99013 13.708 10.0029 13.7446 10.0216C13.7857 10.0358 13.8243 10.055 13.8603 10.0795C13.8925 10.1052 13.9246 10.1309 13.9567 10.1566C14.0133 10.219 14.059 10.291 14.0917 10.3688C14.1245 10.4459 14.1425 10.5295 14.1431 10.613C14.1419 10.6561 14.1374 10.6992 14.1303 10.7416C14.1232 10.7821 14.1104 10.8207 14.0917 10.8574C14.0775 10.8985 14.0583 10.9371 14.0338 10.9731C14.0081 11.0053 13.9824 11.0374 13.9567 11.0695C13.9245 11.0953 13.8924 11.1209 13.8603 11.1467C13.8243 11.1711 13.7857 11.1904 13.7445 11.2045C13.7079 11.2232 13.6687 11.236 13.6288 11.2431C13.5864 11.2509 13.5433 11.2547 13.5002 11.256C13.416 11.2547 13.3331 11.2374 13.2559 11.2046C13.1782 11.1718 13.1068 11.1262 13.0438 11.0696C13.018 11.0375 12.9924 11.0053 12.9666 10.9732C12.9423 10.9372 12.9229 10.8986 12.9088 10.8575C12.8901 10.8208 12.8773 10.7822 12.8702 10.7417C12.8624 10.6993 12.8586 10.6562 12.8573 10.6131C12.858 10.5289 12.8754 10.446 12.9089 10.3688Z" fill="#FF5101"/>
<path d="M1.70813 13.0465L8.37789 12.1581C9.41101 12.025 10.149 11.0922 10.0416 10.0559L9.71188 6.7612L2.15814 7.70488C1.80453 7.74798 1.48503 7.93699 1.27549 8.22499C1.06659 8.51363 0.986856 8.87624 1.05562 9.22527C1.28829 10.4069 1.52363 11.7318 1.70813 13.0465Z" fill="#FF5101"/>
<path d="M35.3829 29.2775C32.2187 31.2775 24.9086 31.7416 22.5004 31.7416C21.2494 31.703 20.0106 31.4825 18.8232 31.0872C16.7236 30.382 14.4909 30.1647 12.2942 30.4514C7.82887 31.0082 2.09964 29.2686 0.323373 28.6772L0 29.3231V32.6982C0.406273 32.9219 0.837647 33.0955 1.28576 33.2151V33.0261C1.28576 32.6712 1.57376 32.3832 1.92864 32.3832C2.28351 32.3832 2.57151 32.6712 2.57151 33.0261V33.5063C2.95079 33.5725 3.37963 33.6304 3.85727 33.6779V33.6689C3.85727 33.3141 4.14528 33.0261 4.50015 33.0261C4.85502 33.0261 5.14303 33.3141 5.14303 33.6689V33.7698C5.54227 33.7872 5.97294 33.7956 6.42878 33.7962V33.6689C6.42878 33.3141 6.71679 33.0261 7.07166 33.0261C7.42654 33.0261 7.71454 33.3141 7.71454 33.6689V33.7763C8.06042 33.7641 8.41916 33.748 8.79393 33.7255C8.9077 33.7204 8.99833 33.6278 9.0003 33.5134C8.99643 32.5279 9.73958 31.6999 10.72 31.5964C12.1375 31.4331 13.5679 31.4151 14.9886 31.5436C15.969 31.6497 16.7128 32.477 16.7148 33.4633V33.6355C16.7129 33.7339 16.781 33.8207 16.8768 33.8419C17.1609 33.9017 17.5653 33.9769 18.0552 34.0521C18.1568 33.8181 18.3875 33.667 18.6428 33.6664C18.9565 33.669 19.2214 33.9004 19.2657 34.2109C19.6623 34.2533 20.1053 34.2893 20.5713 34.3202V34.3112C20.5713 33.9563 20.8593 33.6683 21.2142 33.6683C21.5691 33.6683 21.8571 33.9563 21.8571 34.3112V34.3793C22.2685 34.3902 22.6941 34.396 23.1429 34.3909V34.3112C23.1429 33.9563 23.4309 33.6683 23.7857 33.6683C24.1406 33.6683 24.4286 33.9563 24.4286 34.3112V34.3549C24.8471 34.3357 25.2785 34.3073 25.722 34.2707C25.7355 33.9569 25.9779 33.7004 26.2903 33.6689C26.6027 33.6374 26.8914 33.8406 26.9672 34.1453C27.3966 34.0952 27.8376 34.0341 28.2857 33.9653V33.7557C28.2845 33.4028 28.568 33.1154 28.9209 33.1116C29.2738 33.1083 29.5631 33.3899 29.5689 33.7428C29.9913 33.6631 30.4213 33.5718 30.8572 33.4741V33.1128C30.8572 32.758 31.1452 32.4699 31.5001 32.4699C31.8549 32.4699 32.1429 32.758 32.1429 33.1128V33.1604C32.5672 33.0492 32.9947 32.9316 33.4287 32.8017V32.4699C33.4287 32.2996 33.4962 32.1357 33.6171 32.0154C33.7379 31.8946 33.9012 31.8271 34.0716 31.8271C34.3982 31.829 34.6701 32.0778 34.701 32.4031C35.4801 32.1357 36.0027 31.4022 36.0002 30.5779V30.3626C35.9994 29.9178 35.7647 29.5057 35.3829 29.2775Z" fill="#FF5101"/>
<path d="M12.1348 29.176C12.8324 29.0866 13.535 29.0409 14.2383 29.0397C15.9149 29.0616 17.578 29.3348 19.1736 29.8503C20.2472 30.2122 21.3684 30.4161 22.5004 30.4559C26.0825 30.4559 32.2817 29.7347 34.7149 28.1918V26.6013C34.7123 24.8277 33.2742 23.3909 31.5006 23.3896H27.3541C26.7858 23.9713 24.4149 26.1886 21.3176 26.1886C19.7362 26.1642 18.2074 25.6152 16.9718 24.6277C12.0789 20.9582 1.42979 21.5355 1.32375 21.5407C1.31475 21.5413 1.30702 21.5368 1.29802 21.5374C1.28965 21.5689 1.28065 21.6023 1.27229 21.6338C0.727776 23.6409 0.253369 25.3895 0.567038 27.4017C2.03406 27.8947 7.83917 29.7134 12.1348 29.176Z" fill="#FF5101"/>
</g>
<defs>
<clipPath id="clip0">
<rect width="36" height="36" fill="white"/>
</clipPath>
</defs>
</svg>
