<svg width="50" height="40" viewBox="0 0 50 40" fill="none" xmlns="http://www.w3.org/2000/svg">
<path d="M50 3.01162L49.2162 1.81129L47.47 2.8771L45.6281 0.556633L45.4134 4.21713L39.2901 7.96299C38.333 6.88942 37.6526 6.59968 37.6526 6.59968L26.7565 13.3127L25.9701 13.0023L25.5355 12.3323L33.8162 7.72499C33.141 6.63072 31.7933 4.44219 31.7933 4.44219L24.0454 10.2447L23.7298 10.4387L23.3547 9.82816L21.5801 10.9224L21.9578 11.5381L21.4094 11.8744L20.2763 10.0325L18.5017 11.1268L19.6347 12.9687L18.8664 13.4421L18.4861 12.8264L16.7115 13.9207L17.0892 14.5338L17.0323 14.5726L10.0398 18.2641L11.786 21.0994L18.468 16.5723C18.781 17.0819 19.0216 17.4725 19.0216 17.4725L14.4997 20.2509L15.2577 21.4305L14.2927 24.496L10.3658 28.1487C10.3658 28.1487 3.19485 31.9489 0 33.7158C0.796772 35.5033 2.49379 37.7773 3.73293 39.4432C3.73293 39.4432 16.2924 26.8216 21.0808 27.1166L25.833 24.1778C25.833 24.1778 23.8876 22.3566 24.5395 21.9427C28.6346 26.475 32.4607 26.3508 32.4607 26.3508C33.6041 24.8815 33.8266 23.1922 34.4785 21.6064C31.3871 20.8666 31.3069 21.34 28.6579 18.7323L40.7466 11.282C40.9277 10.6456 40.0455 9.14262 40.0455 9.14262L50 3.01162ZM24.5706 24.1338L21.4585 26.0533C21.4585 26.0533 20.7316 24.9228 20.3332 24.2735L21.0187 23.8596C21.4533 24.2865 22.3174 24.9384 23.1762 24.4106L22.8554 23.8932C22.4079 24.1675 21.8879 23.8337 21.5568 23.5337L23.4789 22.3618L24.5706 24.1338Z" fill="#FF5101"/>
</svg>
