<svg width="33" height="36" viewBox="0 0 33 36" fill="none" xmlns="http://www.w3.org/2000/svg">
<path d="M28.857 19.9285H27.5713C27.2163 19.9285 26.9285 20.2163 26.9285 20.5713V24.4285C26.9285 24.7835 27.2163 25.0713 27.5713 25.0713H28.857C29.2121 25.0713 29.4999 24.7835 29.4999 24.4285V20.5713C29.4999 20.2163 29.2121 19.9285 28.857 19.9285Z" fill="black"/>
<path d="M28.857 7.07135H27.5713C27.2163 7.07135 26.9285 7.35917 26.9285 7.71421V11.5713C26.9285 11.9264 27.2163 12.2142 27.5713 12.2142H28.857C29.2121 12.2142 29.4999 11.9264 29.4999 11.5713V7.71421C29.4999 7.35917 29.2121 7.07135 28.857 7.07135Z" fill="black"/>
<path d="M16.9843 18.4499C18.2953 17.9058 18.9175 16.4023 18.3743 15.0909C17.8311 13.7795 16.3281 13.1563 15.0163 13.6985C13.7045 14.2408 13.0802 15.7434 13.6215 17.0556C14.1656 18.3687 15.6707 18.9928 16.9843 18.4499Z" fill="black"/>
<path d="M2.60742 34.7142C2.60742 35.4243 3.18306 35.9999 3.89314 35.9999H10.2144C10.9244 35.9999 11.5001 35.4243 11.5001 34.7142V33.4285H2.60742V34.7142Z" fill="black"/>
<path d="M20.5 34.7142C20.5 35.4243 21.0756 35.9999 21.7857 35.9999H28.1069C28.817 35.9999 29.3927 35.4243 29.3927 34.7142V33.4285H20.5V34.7142Z" fill="black"/>
<path d="M30.1428 0H1.96641C0.901293 0 0.0378418 0.863451 0.0378418 1.92857V30.2143C0.0378418 31.2794 0.901293 32.1429 1.96641 32.1429H30.1428C31.208 32.1429 32.0714 31.2794 32.0714 30.2143V1.92857C32.0714 0.863451 31.208 0 30.1428 0ZM30.7857 11.5714C30.7857 12.6365 29.9222 13.5 28.8571 13.5V18.6429C29.9222 18.6429 30.7857 19.5063 30.7857 20.5714V24.4286C30.7857 25.4937 29.9222 26.3571 28.8571 26.3571V27C28.8571 28.0651 27.9937 28.9286 26.9286 28.9286H5.07141C4.00629 28.9286 3.14284 28.0651 3.14284 27V21.2143C3.14284 20.8592 3.43066 20.5714 3.7857 20.5714C4.14074 20.5714 4.42856 20.8592 4.42856 21.2143V27C4.42856 27.355 4.71637 27.6429 5.07141 27.6429H26.9286C27.2836 27.6429 27.5714 27.355 27.5714 27V26.3571C26.5063 26.3571 25.6428 25.4937 25.6428 24.4286V20.5714C25.6428 19.5063 26.5063 18.6429 27.5714 18.6429V13.5C26.5063 13.5 25.6428 12.6365 25.6428 11.5714V7.71429C25.6428 6.64917 26.5063 5.78571 27.5714 5.78571V5.14286C27.5714 4.78782 27.2836 4.5 26.9286 4.5H5.07141C4.71637 4.5 4.42856 4.78782 4.42856 5.14286V18C4.42856 18.355 4.14074 18.6429 3.7857 18.6429C3.43066 18.6429 3.14284 18.355 3.14284 18V5.14286C3.14284 4.07774 4.00629 3.21429 5.07141 3.21429H26.9286C27.9937 3.21429 28.8571 4.07774 28.8571 5.14286V5.78571C29.9222 5.78571 30.7857 6.64917 30.7857 7.71429V11.5714ZM9.57141 7.07143H6.99998V9.64286C6.99998 9.9979 6.71217 10.2857 6.35713 10.2857C6.00209 10.2857 5.71427 9.9979 5.71427 9.64286V6.42857C5.71427 6.07353 6.00209 5.78571 6.35713 5.78571H9.57141C9.92645 5.78571 10.2143 6.07353 10.2143 6.42857C10.2143 6.78361 9.92645 7.07143 9.57141 7.07143ZM13.048 8.94471C16.4481 7.53624 20.3697 8.72577 22.4144 11.7858C24.4591 14.8459 24.0575 18.9242 21.4551 21.5265C18.8527 24.1289 14.7744 24.5306 11.7144 22.4859C8.65432 20.4412 7.4648 16.5196 8.87327 13.1194C9.65121 11.226 11.1546 9.72265 13.048 8.94471Z" fill="black"/>
<path d="M10.4071 17.692C10.6203 17.5982 10.8676 17.627 11.0535 17.7675C11.2394 17.9079 11.3348 18.1378 11.3028 18.3686C11.2709 18.5993 11.1166 18.7948 10.8995 18.8794L10.3351 19.1134C10.9297 20.228 11.8422 21.1407 12.9567 21.7356L13.1907 21.1705C13.2753 20.9535 13.4707 20.7992 13.7014 20.7672C13.9322 20.7353 14.1622 20.8307 14.3026 21.0165C14.443 21.2024 14.4719 21.4497 14.378 21.6629L14.1447 22.2274C15.3533 22.5951 16.644 22.5951 17.8527 22.2274L17.6193 21.6629C17.5255 21.4497 17.5543 21.2024 17.6947 21.0165C17.8352 20.8307 18.0651 20.7353 18.2959 20.7672C18.5266 20.7992 18.7221 20.9535 18.8067 21.1705L19.0407 21.7349C20.1553 21.1403 21.068 20.2278 21.6629 19.1134L21.0978 18.8794C20.8808 18.7948 20.7265 18.5993 20.6945 18.3686C20.6626 18.1378 20.7579 17.9079 20.9438 17.7675C21.1297 17.627 21.377 17.5982 21.5902 17.692L22.1547 17.9254C22.5224 16.7167 22.5224 15.426 22.1547 14.2174L21.5902 14.4507C21.377 14.5446 21.1297 14.5157 20.9438 14.3753C20.7579 14.2349 20.6626 14.0049 20.6945 13.7741C20.7265 13.5434 20.8808 13.348 21.0978 13.2634L21.6622 13.0294C21.0676 11.9148 20.1551 11.002 19.0407 10.4071L18.8067 10.9722C18.7221 11.1893 18.5266 11.3435 18.2959 11.3755C18.0651 11.4075 17.8352 11.3121 17.6947 11.1262C17.5543 10.9403 17.5255 10.693 17.6193 10.4798L17.8527 9.91536C16.644 9.54766 15.3533 9.54766 14.1447 9.91536L14.378 10.4798C14.4719 10.693 14.443 10.9403 14.3026 11.1262C14.1622 11.3121 13.9322 11.4075 13.7014 11.3755C13.4707 11.3435 13.2753 11.1893 13.1907 10.9722L12.9567 10.4078C11.8421 11.0024 10.9294 11.9149 10.3345 13.0294L10.8995 13.2634C11.1166 13.348 11.2709 13.5434 11.3028 13.7741C11.3348 14.0049 11.2394 14.2349 11.0535 14.3753C10.8676 14.5157 10.6203 14.5446 10.4071 14.4507L9.84267 14.2174C9.47497 15.426 9.47497 16.7167 9.84267 17.9254L10.4071 17.692ZM14.5214 12.508C16.4889 11.6921 18.7454 12.6255 19.5616 14.5929C20.3778 16.5604 19.4448 18.817 17.4774 19.6335C15.5101 20.4499 13.2533 19.5172 12.4366 17.5499C11.6214 15.5819 12.5544 13.3256 14.5214 12.508Z" fill="black"/>
</svg>
