<svg width="36" height="36" viewBox="0 0 36 36" fill="none" xmlns="http://www.w3.org/2000/svg">
<g clip-path="url(#clip0)">
<path d="M34.8261 16.8261H33.2014C32.628 9.34805 26.652 3.37205 19.1739 2.79858V1.17394C19.1739 0.525445 18.6485 0 18 0C17.3515 0 16.8261 0.525445 16.8261 1.17394V2.79865C9.34805 3.37205 3.37205 9.34805 2.79858 16.8261H1.17394C0.525445 16.8261 0 17.3515 0 18C0 18.6485 0.525445 19.1739 1.17394 19.1739H2.79865C3.37205 26.652 9.34805 32.628 16.8261 33.2014V34.8261C16.8261 35.4746 17.3516 36.0001 18.0001 36.0001C18.6486 36.0001 19.174 35.4746 19.174 34.8261V33.2014C26.6521 32.628 32.6281 26.652 33.2015 19.1739H34.8262C35.4743 19.1739 36.0001 18.6485 36.0001 18C36 17.3515 35.4741 16.8261 34.8261 16.8261ZM19.1739 5.14645C25.3582 5.70713 30.2929 10.6419 30.8536 16.8261H28.4961C27.9525 11.9375 24.0626 8.04762 19.174 7.50403V5.14645H19.1739ZM16.8261 5.14645V7.50403C11.9374 8.04755 8.04755 11.9374 7.50396 16.8261H5.14645C5.70713 10.6419 10.6419 5.70713 16.8261 5.14645ZM16.8261 30.8535H16.8261C10.6418 30.2929 5.70705 25.3581 5.14638 19.1739H7.50396C8.04748 24.0625 11.9374 27.9524 16.8261 28.496V30.8535H16.8261ZM18 23.8695C17.3515 23.8695 16.8261 24.395 16.8261 25.0435V26.1236C13.2351 25.6064 10.3937 22.7649 9.8763 19.1739H10.9564C11.6049 19.1739 12.1304 18.6485 12.1304 18C12.1304 17.3515 11.6049 16.8261 10.9564 16.8261H9.8763C10.3935 13.2351 13.235 10.3937 16.8261 9.8763V10.9564C16.8261 11.6049 17.3515 12.1304 18 12.1304C18.6485 12.1304 19.1739 11.6049 19.1739 10.9564V9.8763C22.7649 10.3935 25.6063 13.235 26.1236 16.8261H25.0435C24.395 16.8261 23.8695 17.3515 23.8695 18C23.8695 18.6485 24.395 19.1661 25.0435 19.1661H26.1236C25.6064 22.7571 22.7649 25.6063 19.1739 26.1236V25.0435C19.1739 24.395 18.6485 23.8695 18 23.8695ZM19.1739 30.8535V28.496C24.0626 27.9525 27.9525 24.0547 28.496 19.166H30.8536C30.2929 25.3503 25.3581 30.2929 19.1739 30.8535Z" fill="black"/>
<path d="M18 14.4782C16.0581 14.4782 14.4783 16.058 14.4783 17.9999C14.4783 19.9419 16.0581 21.5217 18 21.5217C19.942 21.5217 21.5218 19.9419 21.5218 17.9999C21.5218 16.058 19.942 14.4782 18 14.4782Z" fill="black"/>
</g>
<defs>
<clipPath id="clip0">
<rect width="36" height="36" fill="white"/>
</clipPath>
</defs>
</svg>
