<svg width="36" height="36" viewBox="0 0 36 36" fill="none" xmlns="http://www.w3.org/2000/svg">
<path d="M6.82752 24.8276V20.309C6.82946 20.043 6.99843 19.8069 7.24959 19.7193L13.3944 17.671C13.5172 17.6265 13.5989 17.5099 13.5989 17.3793C13.5989 17.2487 13.5172 17.1321 13.3944 17.0876L8.59648 15.4862C8.34177 15.4025 8.1696 15.1647 8.1696 14.8966C8.1696 14.6284 8.34177 14.3906 8.59648 14.3069L13.3944 12.7055C13.5172 12.661 13.5989 12.5444 13.5989 12.4138C13.5989 12.2832 13.5172 12.1666 13.3944 12.1221L8.59648 10.5207C8.34177 10.437 8.1696 10.1992 8.1696 9.93103C8.1696 9.66291 8.34177 9.4251 8.59648 9.34138L13.3944 7.74C13.5172 7.69545 13.5989 7.57885 13.5989 7.44828C13.5989 7.3177 13.5172 7.2011 13.3944 7.15655L8.59648 5.55517C8.34177 5.47145 8.1696 5.23364 8.1696 4.96552C8.1696 4.6974 8.34177 4.45958 8.59648 4.37586L13.3944 2.77448C13.5172 2.72994 13.5989 2.61333 13.5989 2.48276C13.5989 2.35219 13.5172 2.23558 13.3944 2.19103L6.82752 0L1.24131 0C0.556565 0.00204505 0.00197697 0.556633 -6.77109e-05 1.24138L-6.77109e-05 27.3103C0.00197697 27.9951 0.556565 28.5497 1.24131 28.5517L2.53235 28.5517C2.54027 28.4618 2.55479 28.3726 2.5758 28.2848C2.996 26.2713 4.77059 24.8283 6.82752 24.8276ZM1.862 3.10345V2.48276C1.862 2.13996 2.13989 1.86207 2.48269 1.86207C2.82549 1.86207 3.10338 2.13996 3.10338 2.48276V3.10345C3.10338 3.44625 2.82549 3.72414 2.48269 3.72414C2.13989 3.72414 1.862 3.44625 1.862 3.10345ZM1.862 23.5862L1.862 5.58621C1.862 5.24341 2.13989 4.96552 2.48269 4.96552C2.82549 4.96552 3.10338 5.24341 3.10338 5.58621L3.10338 23.5862C3.10338 23.929 2.82549 24.2069 2.48269 24.2069C2.13989 24.2069 1.862 23.929 1.862 23.5862Z" fill="#FF5101"/>
<path d="M36 35.3793V29.1724L33.809 22.6055C33.7644 22.4828 33.6478 22.4011 33.5172 22.4011C33.3867 22.4011 33.2701 22.4828 33.2255 22.6055L31.6241 27.4035C31.5404 27.6582 31.3026 27.8303 31.0345 27.8303C30.7664 27.8303 30.5285 27.6582 30.4448 27.4035L28.8434 22.6055C28.7989 22.4828 28.6823 22.4011 28.5517 22.4011C28.4212 22.4011 28.3045 22.4828 28.26 22.6055L26.6586 27.4035C26.5749 27.6582 26.3371 27.8303 26.069 27.8303C25.8008 27.8303 25.563 27.6582 25.4793 27.4035L23.8779 22.6055C23.8334 22.4828 23.7168 22.4011 23.5862 22.4011C23.4556 22.4011 23.339 22.4828 23.2945 22.6055L21.6931 27.4035C21.6094 27.6582 21.3716 27.8303 21.1034 27.8303C20.8353 27.8303 20.5975 27.6582 20.5138 27.4035L18.9124 22.6055C18.8679 22.4828 18.7513 22.4011 18.6207 22.4011C18.4901 22.4011 18.3735 22.4828 18.329 22.6055L16.2807 28.7504C16.1931 29.0015 15.957 29.1705 15.691 29.1724H11.1724C11.1695 31.3314 9.58458 33.162 7.44828 33.4738L7.44828 34.7586C7.45032 35.4434 8.00491 35.998 8.68966 36H35.3793C35.7221 36 36 35.7221 36 35.3793V35.3793Z" fill="#FF5101"/>
<path d="M9.93091 29.1725C9.93091 27.4585 8.54145 26.069 6.82746 26.069C5.11347 26.069 3.72401 27.4585 3.72401 29.1725C3.72401 30.8865 5.11347 32.2759 6.82746 32.2759C8.54145 32.2759 9.93091 30.8865 9.93091 29.1725ZM6.20677 29.1725C6.20677 28.8297 6.48466 28.5518 6.82746 28.5518C7.17026 28.5518 7.44815 28.8297 7.44815 29.1725C7.44815 29.5153 7.17026 29.7932 6.82746 29.7932C6.48466 29.7932 6.20677 29.5153 6.20677 29.1725Z" fill="#FF5101"/>
</svg>
