<svg width="36" height="36" viewBox="0 0 36 36" fill="none" xmlns="http://www.w3.org/2000/svg">
<g clip-path="url(#clip0)">
<path d="M3.4237 12.4137C2.90484 12.4137 2.48267 12.8359 2.48267 13.3547V32.5767C2.48267 33.095 2.90484 33.5171 3.4237 33.5171H17.6802C18.1984 33.5171 18.6206 33.095 18.6206 32.5761V19.057C18.6206 18.6703 18.3884 18.3275 18.029 18.1836L3.77254 12.4807C3.66131 12.4367 3.54342 12.4137 3.4237 12.4137ZM3.72405 17.9999H9.31025V19.2413H3.72405V17.9999ZM14.1667 24.7866C14.6437 25.5021 14.8965 26.3359 14.8965 27.196V27.3103C14.8965 29.7054 12.9474 31.6551 10.5516 31.6551C8.15586 31.6551 6.2068 29.7054 6.2068 27.3103V27.196C6.2068 26.3353 6.45957 25.5021 6.9366 24.786L10.5516 19.3634L14.1667 24.7866ZM9.31025 16.7585H3.72405V15.5171H9.31025V16.7585Z" fill="black"/>
<path d="M11.1724 2.48279H12.4137V3.72417H11.1724V2.48279Z" fill="black"/>
<path d="M10.5517 30.4138C12.2628 30.4138 13.6551 29.0215 13.6551 27.3103V27.1961C13.6551 26.5817 13.4745 25.9865 13.1339 25.4749L10.5517 21.602L7.96952 25.4749C7.62887 25.9865 7.44824 26.5817 7.44824 27.1961V27.3103C7.44824 29.0215 8.84055 30.4138 10.5517 30.4138ZM8.68962 27.1961C8.68962 26.8269 8.79751 26.4699 9.00239 26.1632L10.0347 26.853C9.96707 26.9554 9.931 27.0739 9.931 27.1961V27.3103C9.931 27.6528 10.2098 27.931 10.5517 27.931V29.1724C9.52519 29.1724 8.68962 28.3368 8.68962 27.3103V27.1961Z" fill="black"/>
<path d="M8.6897 2.48279H9.93108V3.72417H8.6897V2.48279Z" fill="black"/>
<path d="M14.8964 0.62069C14.8964 0.278825 14.6176 0 14.2758 0H6.82748C6.48561 0 6.20679 0.278825 6.20679 0.62069V1.24138H14.8964V0.62069Z" fill="black"/>
<path d="M13.6553 2.48279H14.8967V3.72417H13.6553V2.48279Z" fill="black"/>
<path d="M6.20679 2.48279H7.44816V3.72417H6.20679V2.48279Z" fill="black"/>
<path d="M16.1379 11.1725H20.5497C19.8299 10.3896 18.8101 9.93109 17.7069 9.93109H3.39652C1.96451 9.93109 0.677667 10.7076 0 11.9595V34.138C0 35.1645 0.835567 36.0001 1.86207 36.0001H19.2414C20.2679 36.0001 21.1034 35.1645 21.1034 34.138V14.8966H16.1379V13.6552H21.1034V12.4139H16.1379V11.1725ZM18.491 17.0311C19.3238 17.3645 19.8621 18.1595 19.8621 19.0572V32.5763C19.8621 33.7798 18.8832 34.7587 17.6797 34.7587H3.42379C2.2203 34.7587 1.24138 33.7798 1.24138 32.5763V13.3549C1.24138 12.1514 2.2203 11.1725 3.42379 11.1725C3.70232 11.1725 3.97478 11.2246 4.2336 11.3282L18.491 17.0311Z" fill="black"/>
<path d="M20.3097 8.45696L15.3218 4.96558H5.78169L0.793743 8.45696C0.297313 8.80518 0 9.37496 0 9.98262V9.98868C0.918002 9.16826 2.11089 8.68971 3.39652 8.68971H17.7069C18.9926 8.68971 20.1854 9.16826 21.1034 9.98868V9.98262C21.1034 9.37496 20.8061 8.80518 20.3097 8.45696Z" fill="black"/>
<path d="M29.7932 17.3793H31.0346V18.6207H29.7932V17.3793Z" fill="black"/>
<path d="M27.3103 17.3793H28.5517V18.6207H27.3103V17.3793Z" fill="black"/>
<path d="M30.4138 3.72406C30.0614 3.72406 29.7665 3.99107 29.731 4.34172L28.5518 16.1379H32.2759L31.0966 4.34172C31.0612 3.99107 30.7663 3.72406 30.4138 3.72406Z" fill="black"/>
<path d="M33.5173 21.7241H36.0001C36.0001 21.5299 35.9076 21.3444 35.7524 21.2283L33.9313 19.8621H26.8964L25.0759 21.2277C24.9207 21.3444 24.8276 21.5293 24.8276 21.7241H32.2759V22.9655H24.8276V35.3793C24.8276 35.7218 25.1065 36 25.4483 36H35.3794C35.7212 36 36.0001 35.7218 36.0001 35.3793V22.9655H33.5173V21.7241ZM30.4442 33.5172H30.3829C28.6891 33.5172 27.3104 32.1386 27.3104 30.4441C27.3104 29.9104 27.4507 29.3827 27.715 28.9196L30.4138 24.1969L33.1127 28.919C33.377 29.3827 33.5173 29.9098 33.5173 30.4441C33.5173 32.1386 32.1386 33.5172 30.4442 33.5172Z" fill="black"/>
<path d="M30.4138 26.6996L28.7933 29.5355C28.6348 29.811 28.5518 30.1259 28.5518 30.4441C28.5518 31.4539 29.3737 32.2758 30.3835 32.2758H30.4447C31.454 32.2758 32.2759 31.4539 32.2759 30.4441C32.2759 30.1259 32.1929 29.811 32.0344 29.5355L30.4138 26.6996Z" fill="black"/>
<path d="M32.2759 17.3793H33.5173V18.6207H32.2759V17.3793Z" fill="black"/>
</g>
<defs>
<clipPath id="clip0">
<rect width="36" height="36" fill="white"/>
</clipPath>
</defs>
</svg>
