<svg width="32" height="32" viewBox="0 0 32 32" fill="none" xmlns="http://www.w3.org/2000/svg">
<path d="M10.9197 0.179758C10.2629 0.207531 9.57716 0.280586 8.8719 0.397164C9.42411 2.94599 10.6767 5.24493 13.1359 7.2508V6.51252C12.5132 5.7921 12.0204 4.71885 11.6195 3.51763C11.255 2.4254 11.0003 1.25195 10.9197 0.179688V0.179758ZM21.1248 0.179758C21.0442 1.25202 20.7895 2.42554 20.425 3.5177C20.0241 4.71885 19.5313 5.79217 18.9086 6.51252V7.2508C21.3677 5.24479 22.6204 2.94585 23.1726 0.397094C22.4672 0.280516 21.7816 0.207461 21.1248 0.179688V0.179758ZM12.1973 0.333039C12.2526 0.849344 12.3544 1.40952 12.4914 1.97012C13.7129 2.61939 14.8566 2.96603 16.0222 2.96603C17.1879 2.96603 18.3316 2.61939 19.5531 1.97012C19.6901 1.40959 19.7919 0.849344 19.8472 0.333039C18.367 1.27241 17.1768 1.70041 16.0222 1.70041C14.8677 1.70041 13.6775 1.27241 12.1973 0.333039ZM7.62955 0.642976C5.46146 1.14023 3.16375 2.01681 0.97876 3.22408C3.10194 11.894 4.18539 23.4807 3.22183 31.2317H13.1359V8.84648C9.94901 6.53861 8.29518 3.70572 7.62955 0.642906V0.642976ZM24.4149 0.642976C23.7493 3.70572 22.0955 6.53861 18.9086 8.84655V31.2317H28.8226C27.859 23.4807 28.9425 11.894 31.0657 3.22408C28.8807 2.01681 26.583 1.14016 24.4149 0.642906V0.642976ZM11.6615 11.3508L11.7984 20.362L11.4544 20.543C9.55231 21.5441 7.39688 21.5851 5.2618 20.9984L4.8035 20.8727L4.67537 12.444L4.66622 11.8454L11.6615 11.3508ZM20.383 11.3508L26.7802 11.803L27.3782 11.8452L27.2409 20.8727L26.7826 20.9985C24.6476 21.5849 22.4922 21.5441 20.5901 20.543L20.2461 20.362L20.383 11.3508ZM9.55695 12.7683L6.87952 12.9576L8.31313 14.2L9.55695 12.7683ZM22.4875 12.7683L23.7314 14.2001L25.165 12.9576L22.4875 12.7683ZM10.4297 13.695L8.4395 15.9855L5.9639 13.8397L6.05591 19.8874C7.66004 20.2529 9.16391 20.1877 10.5191 19.5812L10.4297 13.695ZM21.6148 13.695L21.5254 19.5812C22.8806 20.1877 24.3845 20.2529 25.9886 19.8874L26.0806 13.8397L23.6049 15.9855L21.6148 13.695ZM14.4031 29.966V31.2317H17.6414V29.966H14.4031Z" fill="#FF5101"/>
</svg>
