<svg width="24" height="24" viewBox="0 0 24 24" fill="none" xmlns="http://www.w3.org/2000/svg">
<path d="M18.3412 15.8117C17.4947 14.9646 16.6482 14.9646 15.8016 15.8117C15.2373 16.3764 14.3908 16.9411 13.8264 17.7882C13.5443 18.0705 13.5443 18.0705 13.2621 17.7882C12.9799 17.5058 12.6978 17.5058 12.4156 17.2235C10.4404 16.094 9.02951 14.6823 7.90082 12.9881C7.33648 12.4234 6.77214 11.5764 6.20779 10.4469C6.20779 10.1646 6.20779 10.1646 6.20779 9.88223C6.77214 9.31752 7.33648 8.75281 7.90082 8.1881C8.74734 7.34103 8.74734 6.49397 7.90082 5.6469C7.61865 5.36455 7.05431 4.79984 6.77214 4.23513C6.20779 3.95277 5.64345 3.38806 5.36127 2.82335C4.51476 1.97628 3.38607 1.97628 2.82172 2.82335C1.97521 3.38806 1.41086 3.95277 0.846517 4.51748C0.282172 5.08219 0 5.92926 0 6.49397C0 7.62339 0.282172 9.03516 0.564345 10.1646C1.41086 12.4234 2.82172 14.6823 4.51476 16.6588C6.77214 19.2 9.31169 21.4588 12.4156 22.8706C13.8264 23.4353 15.2373 24 16.6482 24C17.7769 24 18.6234 23.7176 19.4699 22.8706C20.0342 22.3059 20.5986 21.7412 21.1629 21.1764C22.0094 20.3294 22.0094 19.4823 21.1629 18.6352C20.0342 17.7882 19.1877 16.9411 18.3412 15.8117Z" fill="black"/>
<path d="M17.2126 11.8588L19.1878 11.5765C18.9056 9.88232 18.0591 8.47055 16.9304 7.05877C15.5196 5.64699 14.1087 5.08228 12.1335 4.79993L11.8513 6.77641C13.2622 6.77641 14.3909 7.34112 15.5196 8.47055C16.3661 9.31761 16.9304 10.7294 17.2126 11.8588Z" fill="black"/>
<path d="M20.0342 3.95297C18.059 1.69413 15.2373 0.282355 12.4156 0L12.1334 1.97649C14.673 2.25884 16.9304 3.38826 18.9056 5.0824C20.5986 6.77653 21.7273 9.03537 22.2916 11.5766L23.9847 11.2942C23.4203 8.47066 22.2916 5.92946 20.0342 3.95297Z" fill="black"/>
</svg>
