<svg width="26" height="22" viewBox="0 0 26 22" fill="none" xmlns="http://www.w3.org/2000/svg">
<g clip-path="url(#clip0)">
<path d="M26 1.58495C22.3246 4.84095 17.9141 10.3409 12.7684 18.0849L10.2324 22.0229C8.11535 19.3829 4.70455 15.7163 0 11.0229L2.35963 8.66895L8.66667 14.1689C10.8719 11.9689 12.9228 9.97795 14.8193 8.19595C16.7159 6.41395 18.2265 5.03895 19.3511 4.07095C20.4758 3.10295 21.4425 2.28895 22.2511 1.62895C23.0597 0.968949 23.6257 0.536282 23.9491 0.330949L24.4122 0.0229492C24.471 0.0229492 24.5519 0.0376159 24.6548 0.0669492C24.7577 0.0962825 24.9488 0.239282 25.2282 0.495949C25.5075 0.752616 25.7648 1.11562 26 1.58495Z" fill="white"/>
</g>
<defs>
<clipPath id="clip0">
<rect width="26" height="22" fill="white"/>
</clipPath>
</defs>
</svg>
