<svg width="20" height="20" viewBox="0 0 20 20" fill="none" xmlns="http://www.w3.org/2000/svg">
<g clip-path="url(#clip0)">
<path d="M14.1908 4.51645L14.1908 20.0003L16.7743 20.0003L16.7743 4.51475L20 4.51475L15.4838 -0.00143202L10.9676 4.51475L14.1908 4.51645ZM11.6099 20.002L0.000844955 20.002L0.00084473 17.421L11.6133 17.421L11.6133 20.0003L11.6099 20.002ZM11.6099 16.1314L2.58092 16.1314L2.58092 13.5505L11.6133 13.5505L11.6099 16.1314ZM11.6099 12.2609L5.16184 12.2609L5.16184 9.67997L11.6133 9.67997L11.6133 12.2609L11.6099 12.2609ZM11.6099 8.39036L7.74275 8.39036L7.74275 5.80775L11.6133 5.80775L11.6099 8.39036Z" fill="#FF5101"/>
</g>
<defs>
<clipPath id="clip0">
<rect width="20" height="20" fill="white" transform="translate(20 20) rotate(180)"/>
</clipPath>
</defs>
</svg>
