<svg width="20" height="21" viewBox="0 0 20 21" fill="none" xmlns="http://www.w3.org/2000/svg">
<path d="M15.2941 13.1849C14.5883 12.4785 13.8824 12.4785 13.1765 13.1849C12.7059 13.6558 12 14.1267 11.5294 14.833C11.2941 15.0684 11.2941 15.0684 11.0588 14.833C10.8235 14.5976 10.5882 14.5976 10.353 14.3621C8.70589 13.4203 7.52942 12.2431 6.58824 10.8304C6.11765 10.3595 5.64707 9.65317 5.17648 8.71138C5.17648 8.47593 5.17648 8.47593 5.17648 8.24048C5.64707 7.76959 6.11765 7.2987 6.58824 6.8278C7.29413 6.12146 7.29413 5.41512 6.58824 4.70878C6.35295 4.47333 5.88236 4.00244 5.64707 3.53155C5.17648 3.2961 4.70589 2.8252 4.47059 2.35431C3.76471 1.64797 2.82353 1.64797 2.35294 2.35431C1.64706 2.8252 1.17647 3.2961 0.705883 3.76699C0.235294 4.23789 0 4.94423 0 5.41512C0 6.35691 0.235294 7.53414 0.470589 8.47593C1.17647 10.3595 2.35294 12.2431 3.76471 13.8912C5.64707 16.0102 7.76472 17.8938 10.353 19.071C11.5294 19.5419 12.7059 20.0128 13.8824 20.0128C14.8235 20.0128 15.5294 19.7774 16.2353 19.071C16.7059 18.6002 17.1765 18.1293 17.6471 17.6584C18.353 16.952 18.353 16.2457 17.6471 15.5393C16.7059 14.833 16 14.1267 15.2941 13.1849Z" fill="white"/>
<path d="M14.3529 9.88869L16 9.65325C15.7647 8.24056 15.0588 7.06333 14.1176 5.88609C12.9412 4.70886 11.7647 4.23796 10.1176 4.00252L9.88232 5.65065C11.0588 5.65065 12 6.12154 12.9412 7.06333C13.647 7.76967 14.1176 8.9469 14.3529 9.88869Z" fill="white"/>
<path d="M16.7059 3.29626C15.0589 1.41268 12.7059 0.235447 10.353 0L10.1177 1.64813C12.2353 1.88358 14.1177 2.82536 15.7647 4.23805C17.1765 5.65073 18.1177 7.5343 18.5883 9.65333L20 9.41788C19.5295 7.06341 18.5883 4.94439 16.7059 3.29626Z" fill="white"/>
</svg>
